<svg width="22" height="25" fill="none" xmlns="http://www.w3.org/2000/svg"><g filter="url(#a)"><mask id="b" maskUnits="userSpaceOnUse" x="3" y="2" width="16" height="19" fill="#000"><path fill="#fff" d="M3 2h16v19H3z"/><path fill-rule="evenodd" clip-rule="evenodd" d="m7.8355 13-.8866-1.3547c-.6054-.925-1.8949-1.2624-2.8812-.7553l.2298-.1182c-.2448.1259-.3622.4396-.2614.7003l1.2273 3.1753c.1946.5034.6915 1.2153 1.1032 1.5729 0 0 2.469 2.0436 2.469 2.8097V20h3.9999l1-2 1 2h1v-.97c0-.7661 1.5089-3.1793 1.5089-3.1793.2777-.4691.5092-1.2955.5092-1.8441V9.9718c-.0181-.8933-.7774-1.6173-1.7143-1.6173-.4688 0-.8484.362-.8484.809v.323c0-.8932-.7594-1.6172-1.6963-1.6172-.4688 0-.8484.362-.8484.8089v.3232c0-.8934-.7594-1.6173-1.6963-1.6173-.4687 0-.8484.362-.8484.8089v.3231c0-.1435-.0153-.2577-.045-.3481l-.2588-4.1668C9.8627 3.4378 9.3878 3 8.8355 3c-.556 0-1 .4476-1 .9998V13Zm7.0181-1h1v4h-1v-4Zm-2 0h1v4h-1v-4Zm-2 0h1v4h-1v-4Z"/></mask><path fill-rule="evenodd" clip-rule="evenodd" d="m7.8355 13-.8866-1.3547c-.6054-.925-1.8949-1.2624-2.8812-.7553l.2298-.1182c-.2448.1259-.3622.4396-.2614.7003l1.2273 3.1753c.1946.5034.6915 1.2153 1.1032 1.5729 0 0 2.469 2.0436 2.469 2.8097V20h3.9999l1-2 1 2h1v-.97c0-.7661 1.5089-3.1793 1.5089-3.1793.2777-.4691.5092-1.2955.5092-1.8441V9.9718c-.0181-.8933-.7774-1.6173-1.7143-1.6173-.4688 0-.8484.362-.8484.809v.323c0-.8932-.7594-1.6172-1.6963-1.6172-.4688 0-.8484.362-.8484.8089v.3232c0-.8934-.7594-1.6173-1.6963-1.6173-.4687 0-.8484.362-.8484.8089v.3231c0-.1435-.0153-.2577-.045-.3481l-.2588-4.1668C9.8627 3.4378 9.3878 3 8.8355 3c-.556 0-1 .4476-1 .9998V13Zm7.0181-1h1v4h-1v-4Zm-2 0h1v4h-1v-4Zm-2 0h1v4h-1v-4Z" fill="#fff"/><path d="m7.8355 13-.8367.5476 1.8367 2.8064V13h-1Zm-.8866-1.3547.8368-.5476-.8368.5476Zm-2.9128-.1732-.9327.3606.9327-.3606Zm1.2273 3.1753.9328-.3605-.9328.3605Zm1.1032 1.5729-.6557.755.009.0078.009.0076.6377-.7704ZM8.8356 20h-1v1h1v-1Zm3.9999 0v1h.6181l.2764-.5528L12.8355 20Zm1-2 .8945-.4472-.8945-1.7889-.8944 1.7889.8944.4472Zm1 2-.8944.4472.2764.5528h.618v-1Zm1 0v1h1v-1h-1Zm1.5089-4.1493.8479.5301.0064-.0102.0062-.0104-.8605-.5095Zm.5092-5.8789h1v-.0101l-.0002-.0101-.9998.0202ZM10.1565 8.168l-.998.062.0079.1278.0399.1217.9502-.3115Zm-.2588-4.1668-.998.062.998-.062Zm-2.0622-.0014h-1 1ZM15.8537 12h1v-1h-1v1Zm0 4v1h1v-1h-1Zm-1 0h-1v1h1v-1Zm-1-4h1v-1h-1v1Zm0 4v1h1v-1h-1Zm-1 0h-1v1h1v-1Zm-1-4h1v-1h-1v1Zm0 4v1h1v-1h-1Zm-1 0h-1v1h1v-1Zm-2.1813-3.5476-.8866-1.3547-1.6735 1.0953.8866 1.3546 1.6735-1.0952Zm-.8866-1.3547c-.8876-1.3562-2.7368-1.8366-4.1752-1.0971l.9144 1.7787c.5343-.2746 1.2641-.0801 1.5873.4137l1.6735-1.0953Zm-3.2608.6816.2298-.1181-.9144-1.7787-.2298.1181.9144 1.7787Zm-.6846-1.8968c-.7092.3646-1.018 1.2227-.737 1.9502l1.8656-.7211c.0456.1179.0356.228.0051.3097-.0304.0814-.0975.1773-.2193.2399l-.9144-1.7787Zm-.737 1.9502 1.2274 3.1752 1.8655-.721-1.2273-3.1753-1.8655.7211Zm1.2274 3.1752c.2527.6539.844 1.5017 1.3802 1.9674l1.3115-1.51c-.2873-.2495-.6898-.8255-.8262-1.1784l-1.8655.721Zm2.036 1.2124c-.6377.7704-.6378.7703-.6378.7703v-.0001.0001a.0164.0164 0 0 0 .0008.0006l.0041.0035.0182.0152a21.981 21.981 0 0 1 .34.2926c.2229.196.5169.4623.8081.7485.2957.2906.5676.5814.7586.8285.096.1242.1543.2153.1845.2729.0405.0776-.0077.0217-.0077-.1224h2c0-.3356-.1252-.623-.2197-.8038-.105-.2007-.2395-.395-.375-.5701-.2718-.3516-.6172-.7154-.9388-1.0314a22.293 22.293 0 0 0-.8892-.824 23.2714 23.2714 0 0 0-.3761-.3237l-.0231-.0193-.0065-.0053-.0019-.0016-.0006-.0005-.0002-.0002c0-.0001-.0002-.0001-.6378.7702ZM7.8354 19.03V20h2v-.97h-2Zm1 1.97h4v-2h-4v2Zm4.8945-.5528 1-2-1.7889-.8944-1 2 1.7889.8944Zm-.7889-2 1 2 1.7889-.8944-1-2-1.7889.8944ZM14.8355 21h1v-2h-1v2Zm2-1v-.97h-2V20h2Zm0-.97c0 .0358.011-.0861.1566-.43.124-.2927.2961-.6351.4779-.9721a25.155 25.155 0 0 1 .4985-.8776c.0682-.1149.1249-.2085.1642-.2728l.0451-.0734.0114-.0183.0026-.0042.0005-.0008.0001-.0001h-.0001l-.8479-.53c-.8479-.5302-.848-.5301-.848-.53l-.0001.0002-.0004.0005-.0011.0018a.1917.1917 0 0 1-.0039.0062l-.0139.0224-.0506.0824a28.0147 28.0147 0 0 0-.1776.2949 27.207 27.207 0 0 0-.5389.9491c-.1954.362-.4005.7666-.5594 1.1418-.1373.3241-.315.7911-.315 1.21h2Zm1.3694-2.6698c.1978-.3341.3544-.7471.4619-1.1344.1073-.3868.1868-.8249.1868-1.2192h-2c0 .1544-.0361.4037-.114.6846-.0778.2802-.1757.5149-.2557.65l1.721 1.019Zm.6487-2.3536V9.9718h-2v4.0348h2Zm-.0002-4.055c-.0297-1.4698-1.2655-2.597-2.7141-2.597v2c.4253 0 .7081.3206.7145.6375l1.9996-.0405Zm-2.7141-2.597c-.9756 0-1.8484.7652-1.8484 1.8088h2c0 .0683-.0307.1224-.0616.1518-.0299.0285-.064.0393-.09.0393v-2Zm-1.8484 1.8088v.3232h2v-.3232h-2Zm2 .3232c0-1.49-1.2526-2.6173-2.6963-2.6173v2c.4301 0 .6963.3207.6963.6173h2Zm-2.6963-2.6173c-.9755 0-1.8484.7653-1.8484 1.8089h2c0 .0683-.0307.1223-.0615.1517-.03.0286-.0641.0394-.0901.0394v-2Zm-1.8484 1.8089v.3232h2v-.3232h-2Zm2 .3232c0-1.49-1.2526-2.6173-2.6963-2.6173v2c.4302 0 .6963.3207.6963.6173h2ZM11.0499 6.384c-.9755 0-1.8484.7653-1.8484 1.8089h2c0 .0683-.0307.1223-.0615.1517-.03.0286-.0641.0394-.0901.0394v-2ZM9.2015 8.193v.3231h2V8.193h-2Zm2 .3231c0-.2073-.0212-.4352-.0947-.6596l-1.9005.623c-.0079-.024-.0087-.0351-.0078-.028a.5313.5313 0 0 1 .003.0646h2Zm-.0469-.41-.2588-4.1669-1.9962.124.2588 4.1668 1.9962-.124Zm-.2588-4.1669C10.8279 2.845 9.9125 2 8.8356 2v2c.0088 0 .0246.0035.0416.0193a.0645.0645 0 0 1 .0224.0439l1.9962-.124ZM8.8356 2c-1.1108 0-2 .8977-2 1.9998h2V4 2Zm-2 1.9998V8h2V3.9998h-2Zm0 4.0002v5h2V8h-2Zm8.018 5h1v-2h-1v2Zm0-1v4h2v-4h-2Zm1 3h-1v2h1v-2Zm0 1v-4h-2v4h2Zm-3-3h1v-2h-1v2Zm0-1v4h2v-4h-2Zm1 3h-1v2h1v-2Zm0 1v-4h-2v4h2Zm-3-3h1v-2h-1v2Zm0-1v4h2v-4h-2Zm1 3h-1v2h1v-2Zm0 1v-4h-2v4h2Z" fill="#000" fill-opacity=".8" mask="url(#b)"/></g><defs><filter id="a" x="0" y="0" width="21.8535" height="25" filterUnits="userSpaceOnUse" color-interpolation-filters="sRGB"><feFlood flood-opacity="0" result="BackgroundImageFix"/><feColorMatrix in="SourceAlpha" values="0 0 0 0 0 0 0 0 0 0 0 0 0 0 0 0 0 0 127 0" result="hardAlpha"/><feOffset dy="1"/><feGaussianBlur stdDeviation="1.5"/><feColorMatrix values="0 0 0 0 0 0 0 0 0 0 0 0 0 0 0 0 0 0 0.2 0"/><feBlend in2="BackgroundImageFix" result="effect1_dropShadow"/><feBlend in="SourceGraphic" in2="effect1_dropShadow" result="shape"/></filter></defs></svg>